<svg id="Layer_1" data-name="Layer 1" xmlns="http://www.w3.org/2000/svg" xmlns:xlink="http://www.w3.org/1999/xlink" viewBox="0 0 1017.14 413.6"><defs><style>.cls-1{fill:none;stroke:#000;stroke-linecap:round;stroke-linejoin:round;stroke-width:0.5px;}.cls-2{fill:#3187bc;}.cls-3{fill:#9b9b9b;}.cls-4{fill:#3292c1;}.cls-5{fill:#369ec7;}.cls-6{fill:#42aad3;}.cls-7{fill:url(#linear-gradient);}.cls-8{fill:url(#linear-gradient-2);}.cls-9{fill:url(#linear-gradient-3);}.cls-10{fill:url(#linear-gradient-4);}.cls-11{fill:url(#linear-gradient-5);}</style><linearGradient id="linear-gradient" x1="1886.12" y1="393.45" x2="1976.24" y2="295.39" gradientTransform="matrix(-1, 0, 0, 1, 2085.11, -51.55)" gradientUnits="userSpaceOnUse"><stop offset="0.4" stop-color="#006c9b"/><stop offset="1" stop-color="#004976"/></linearGradient><linearGradient id="linear-gradient-2" x1="2011.01" y1="467.15" x2="2011.01" y2="467.15" xlink:href="#linear-gradient"/><linearGradient id="linear-gradient-3" x1="165.46" y1="210.24" x2="120.33" y2="17.02" gradientTransform="matrix(1, 0, 0, -1, 0, 418)" gradientUnits="userSpaceOnUse"><stop offset="0" stop-color="#004976"/><stop offset="0.7" stop-color="#006c9b"/></linearGradient><linearGradient id="linear-gradient-4" x1="100.84" y1="84.7" x2="106.63" y2="397.17" gradientTransform="matrix(1, 0, 0, -1, 0, 418)" gradientUnits="userSpaceOnUse"><stop offset="0" stop-color="#006c9b"/><stop offset="1" stop-color="#4bc9d4"/></linearGradient><linearGradient id="linear-gradient-5" x1="166.8" y1="130.38" x2="184.31" y2="199.62" xlink:href="#linear-gradient-4"/></defs><path class="cls-1" d="M615.4,12.1" transform="translate(-25.01 -2)"/><path class="cls-1" d="M-292.7,67.4" transform="translate(-25.01 -2)"/><path class="cls-2" d="M1042.1,202.2c.4,3.1-1.3,4.9-4.6,4.9-6.1,0-12.1-.1-18.2,0-2.9,0-4.7-1-5.7-3.8-4.3-10.8-8.6-21.6-13-32.4-5.7-14-11.6-27.9-17.2-42.1-4.2-10.3-8.1-20.5-12.1-30.9-.9-2.2-2-4.4-3-6.6l-1.2.1c-7.7,19.4-15.3,38.7-23.1,58.6h15.1c2,0,3.9.1,5.8,0,3.5-.1,5.9,1.2,7.2,4.4,2,5.1,4.2,10,6,14.9,1.6,4.2-1,7.7-5.5,7.7-12,0-24,.1-36,0-2.5,0-3.6.9-4.4,3.1-2.7,7.1-5.6,14.2-8.5,21.3-2.1,5.2-2.5,5.5-8.1,5.5H899.7c-4.8,0-6.6-2.5-4.8-7.2,3.5-9,7.3-17.9,10.8-27,9.8-24.2,19.4-48.5,29.1-72.7,4-9.9,8.2-19.6,12.2-29.5,3.1-7.7,8.8-12.6,16.6-14.2,11-2.2,20.9,3.5,25.2,14,5.7,13.8,11.2,27.6,16.8,41.3,6.5,16,12.9,32,19.4,47.8,5.3,13,10.8,26,16.1,39.1C1041.4,199.9,1041.8,201,1042.1,202.2Z" transform="translate(-25.01 -2)"/><path class="cls-3" d="M1034,364.1c2.1,3.7.9,5.5-3.5,5.5-15.1.1-10.6,1.7-18-11.1-4.5-7.7-8.7-15.7-13.4-23.5a5.87,5.87,0,0,0-4.1-2.4c-5.9-.2-11.6,0-17.5-.1-3,0-2.7,1.7-2.7,3.7v28.3c0,3.9-1.1,5-5,5-11.7.1-10.5.1-10.5-10.5-.1-12.5,0-25,.1-37.4,0-4,.7-4.6,4.7-4.6,15.2,0,30.3,0,45.6-.1a6.64,6.64,0,0,0,6.9-6.5c.1-2.1.1-4.4,0-6.5-.1-4.5-2.6-7.4-7.2-7.5-10.5-.2-21-.1-31.4-.1-5.1,0-10.2-.1-15.2,0-2.2,0-3.2-.9-3.1-3.1.1-2.7.1-5.6.1-8.4s1.5-3.9,4.1-3.9h17.7c11.2,0,22.5-.1,33.7.1a16.24,16.24,0,0,1,11.5,5.4c1.1,1.1,2.6,2.2,3.1,3.6,2.5,7.7,4.1,15.7,2.5,23.8-.6,3.6-1.1,7.2-2.5,10.5-1,2.2-3.4,4.1-5.6,5.6-1.6,1.2-3.9,1.6-6.4,2.5-1.4,3.5,1.5,5.9,3,8.6C1024.9,348.6,1029.5,356.2,1034,364.1Z" transform="translate(-25.01 -2)"/><path class="cls-3" d="M911.6,283.2c0,2.4.2,4.7.1,7.1-.1,3.9-1.1,4.6-5,4.6H877.4v-.1c-9.9,0-19.7-.1-29.6,0-2.7,0-3.7-1-3.6-3.6s.1-5.4,0-8.1c-.1-2.9,1.1-3.7,3.9-3.7,14.2.1,28.5,0,42.7,0,5.5,0,11,0,16.5-.1C910.1,279.2,911.6,280.3,911.6,283.2Z" transform="translate(-25.01 -2)"/><path class="cls-3" d="M911.7,353.2c.1,3.6,0,7.2,0,10.9,0,2.4-1.1,3.7-3.6,3.7-14.6-.1-29.3.5-43.9-.6-10.2-.7-15.2-5.2-18.5-16.5-2.6-9.1-1.2-18.6-1.5-27.8a3.72,3.72,0,0,1,.7-2,9.25,9.25,0,0,1,8.9-5.2c8.9.1,17.7,0,26.5,0v-.1c9,0,17.8.1,26.8,0,3,0,4.1,1.5,4.2,4.1.1,2.4.1,4.7,0,7.1-.1,2.6-1.1,4.2-4.1,4.2H864.8c-5.1,0-5.2,0-5.2,5.4a29.53,29.53,0,0,0,.6,5.9,8,8,0,0,0,8.1,6.7c12.9.1,25.8,0,38.7.1C911,349.1,911.6,349.6,911.7,353.2Z" transform="translate(-25.01 -2)"/><path class="cls-4" d="M849.9,200.6a4.62,4.62,0,0,1-4.4,6.5c-6.2,0-12.4-.1-18.5.1a6.52,6.52,0,0,1-6.5-3.8c-8.2-14.6-16.5-29.1-24.7-43.7-2.3-4.2-4.5-8.3-7-12.4a3.62,3.62,0,0,0-2.6-1.8c-12-.1-24-.1-36.7-.1V198a23.83,23.83,0,0,1-.4,4.6c-.5,3-2.2,4.6-5.3,4.6h-15c-3.9,0-5.8-1.8-5.8-5.7-.1-7.7,0-15.3,0-23v-52c0-6.4,1.2-7.5,7.5-7.5h75c8.8,0,12.2-2.3,13.3-11.1a46.14,46.14,0,0,0-.9-15.3c-1-5.5-4.4-7.4-9.9-7.5H730c-5.6,0-7-1.4-7.2-7V64.4c0-4.6,1.6-6,6.1-6,27.6,0,55-.1,82.5.1a49.11,49.11,0,0,1,15.2,2.7c7.5,2.6,12.3,8.5,15,16a72.8,72.8,0,0,1-.7,51.6c-3.9,10.1-12.3,14.7-23,16.5.5,1,1,1.9,1.6,2.9,9.4,16.1,18.9,32.4,28.2,48.5A12.36,12.36,0,0,1,849.9,200.6Z" transform="translate(-25.01 -2)"/><path class="cls-3" d="M792.1,278c4,0,5.2,1.7,4,5.5-3.4,10.5-6.9,20.8-10.2,31.3-4.2,13.2-8.5,26.6-12.9,39.8-1.5,4.6-3.1,9.2-8,11.7-6.9,3.6-15.1,1.5-18.2-5.6-2.9-6.7-4.7-13.9-7-20.8-3.1-10-6-20-9-30.1a5.91,5.91,0,0,0-.6-1.4l-.7-.1c-1.5,4.6-3.1,9.1-4.5,13.7-3.6,11.4-7.2,22.7-10.9,34.1-2.5,7.6-7.1,11.7-13.5,12-6.9.2-11.9-3.7-14.2-11.5q-11.1-36.75-22-73.5c-1.2-4.2-.6-5.1,3.7-5.1h8.7c2.4,0,3.5,1.2,4.1,3.5,2.4,8.5,5,16.8,7.4,25.3,3.7,12.7,7.4,25.5,11.4,38.9.6-1.2,1.2-2.5,1.7-3.7,6.2-20.1,12.6-40.2,18.8-60.2.9-2.7,2.5-3.9,5.2-3.9,2.9.1,5.9.1,8.7,0,3-.1,4.5,1.4,5.2,4.1,4.4,15.1,8.7,30.2,13.1,45.3,1.6,5.5,3.2,11,4.7,16.3a9.34,9.34,0,0,0,1,2c1.7-5.4,3.4-10.1,4.9-15,5.2-16.6,10.5-33.1,15.7-49.7.7-2.2,2.2-3.1,4.5-3.1C786.4,278,789.2,278,792.1,278Z" transform="translate(-25.01 -2)"/><path class="cls-5" d="M679.5,63.9c.1,4.8.1,9.8,0,14.6,0,4.2-1.8,6-6,6q-51.15,0-102.3-.1c-3.9,0-5.5-1.6-5.5-5.6-.1-5.1-.1-10.1,0-15.2,0-4.3,1.7-5.8,6-5.8H673C677.4,57.6,679.4,59.5,679.5,63.9Z" transform="translate(-25.01 -2)"/><path class="cls-5" d="M679.5,182.8v17.8c0,4.3-1.9,6.1-6.1,6.1-21.3,0-42.6.1-64,0-9.2-.1-18.5-1.2-26.4-6.4-9.2-6-13.1-15.5-15.2-25.7-2.9-14.2-2.1-28.5-1.8-42.8.1-7,7.1-13.1,14.2-13.3,31.1-.1,62.1-.1,93.2-.1,3.4,0,5.2,1.7,5.3,5.5a128.47,128.47,0,0,1,0,15.2c-.3,4.2-2.1,5.7-6.2,5.7H633.9c-12.6,0-25.1.1-37.7,0-2.6,0-3.8.5-3.6,3.4.3,4.3-.1,8.7.5,13,1.6,9.4,6.2,13.1,15.9,13.1,20.9.1,41.9,0,62.7,0C678.3,174.6,679.5,175.9,679.5,182.8Z" transform="translate(-25.01 -2)"/><path class="cls-3" d="M615.7,302c1,14.2.4,28.6.1,42.9a24.53,24.53,0,0,1-6,16.3c-4.5,5-10.6,6.7-17.1,7-10.7.2-21.5.5-32.1,0-13.5-.6-21-7.1-22.7-22-.9-7.4-.9-15-1.2-22.5.4-7.4.2-15,1.2-22.3,1.7-14.4,8.2-21.3,22.8-22.1,10.4-.5,20.8-.4,31.2,0C607.5,279.8,614.7,287.4,615.7,302Zm-14.8,22.1c-.4-7.4-.5-14.7-1.1-21.8-.4-4.2-2.6-6.5-6.9-6.6-10-.4-20.1-.7-30.2-.4-6.6.2-9.1,3.2-9.2,9.7-.2,12.7-.2,25.3,0,38.1.1,5.4,2.9,9.4,9.7,9.2,9.6-.2,19.1,0,28.7-.1,4.7,0,7.4-2.1,7.9-6.6C600.4,338.4,600.5,331.1,600.9,324.1Z" transform="translate(-25.01 -2)"/><path class="cls-6" d="M522.5,65.2c.1,4.4.1,8.8,0,13.3-.1,4.8-1.8,6.4-6.6,6.4H471v114c0,6.8-1.4,8.2-8.2,8.2H451.1c-5.2,0-6.9-1.4-7-6.6-.1-11.3-.1-22.8-.1-34.1,0-26.1,0-52.1.1-78.3a20,20,0,0,0-.3-3.2H399c-4.7,0-6.5-1.7-6.6-6.4-.1-4.9-.1-10,0-15q.15-5.7,6-5.7,58.5,0,117,.1C521,57.9,522.3,59.3,522.5,65.2Z" transform="translate(-25.01 -2)"/><path class="cls-3" d="M488.5,293.9a54.16,54.16,0,0,1-.1,23.7c-2.2,9.2-9,13.5-17.6,13.9-11.7.4-23.5.4-35.2.2-2.5,0-3.2.6-3.1,3.1.1,9.4.1,18.7,0,28.1,0,4.6-.9,5.5-5.4,5.6h-5.9c-3.7,0-4.9-1.1-4.9-4.9V319.7c0-2.7,1-4.1,4.1-4.1h43.7c8,0,9.5-1.5,9.9-9.6s-2.1-10.6-10-10.6H422.6c-5.7,0-6.1-.4-6.1-6.1v-5.9c.1-2.5,1.1-3.7,3.9-3.7,8.6.1,17.2,0,25.8,0h24.3C478.6,279.7,486.3,283.7,488.5,293.9Z" transform="translate(-25.01 -2)"/><path class="cls-7" d="M74.1,415.6l40.1-236.3a9,9,0,0,1,8.8-7.5H235.3" transform="translate(-25.01 -2)"/><path class="cls-8" d="M74.1,415.6" transform="translate(-25.01 -2)"/><path class="cls-9" d="M232.2,171.8H117.6A2.59,2.59,0,0,0,115,174L74,415.6" transform="translate(-25.01 -2)"/><path class="cls-10" d="M184.7,2,27.8,222.4a14.79,14.79,0,0,0,12,23.4H155.6c-7-.4-11.5-3.9-9.6-15.3,2.5-14.5,1.6-9.7,1.6-9.7h0L184.7,2" transform="translate(-25.01 -2)"/><path class="cls-11" d="M236.3,171.8H155.9l-8.3,48.9h0l-2.4,14.6c-1.8,10.9,16.9,18.6,37.8-4.3,21.2-23.3,47.6-56.1,47.6-56.1" transform="translate(-25.01 -2)"/></svg>