<?xml version="1.0" encoding="utf-8"?>
<!-- Generator: Adobe Illustrator 24.3.0, SVG Export Plug-In . SVG Version: 6.00 Build 0)  -->
<svg version="1.1" id="Layer_1" xmlns="http://www.w3.org/2000/svg" xmlns:xlink="http://www.w3.org/1999/xlink" x="0px" y="0px"
	 viewBox="0 0 1173.5 416.8" style="enable-background:new 0 0 1173.5 416.8;" xml:space="preserve">
<style type="text/css">
	.st0{fill:none;stroke:#000000;stroke-width:0.5;stroke-linecap:round;stroke-linejoin:round;}
	.st1{fill:#3187BC;}
	.st2{fill:#9B9B9B;}
	.st3{fill:#3292C1;}
	.st4{fill:#369EC7;}
	.st5{fill:#42AAD3;}
	.st6{fill:#E74C3C;}
	.st7{fill:#F4D419;}
</style>
<path class="st0" d="M718.4,12.1"/>
<path class="st0" d="M-189.7,67.4"/>
<g id="XMLID_2_">
	<g>
		<path class="st1" d="M1145.1,202.2c0.4,3.1-1.3,4.9-4.6,4.9c-6.1,0-12.1-0.1-18.2,0c-2.9,0-4.7-1-5.7-3.8
			c-4.3-10.8-8.6-21.6-13-32.4c-5.7-14-11.6-27.9-17.2-42.1c-4.2-10.3-8.1-20.5-12.1-30.9c-0.9-2.2-2-4.4-3-6.6l-1.2,0.1
			c-7.7,19.4-15.3,38.7-23.1,58.6h15.1c2,0,3.9,0.1,5.8,0c3.5-0.1,5.9,1.2,7.2,4.4c2,5.1,4.2,10,6,14.9c1.6,4.2-1,7.7-5.5,7.7
			c-12,0-24,0.1-36,0c-2.5,0-3.6,0.9-4.4,3.1c-2.7,7.1-5.6,14.2-8.5,21.3c-2.1,5.2-2.5,5.5-8.1,5.5c-5.3,0-10.7,0-15.9,0
			c-4.8,0-6.6-2.5-4.8-7.2c3.5-9,7.3-17.9,10.8-27c9.8-24.2,19.4-48.5,29.1-72.7c4-9.9,8.2-19.6,12.2-29.5
			c3.1-7.7,8.8-12.6,16.6-14.2c11-2.2,20.9,3.5,25.2,14c5.7,13.8,11.2,27.6,16.8,41.3c6.5,16,12.9,32,19.4,47.8
			c5.3,13,10.8,26,16.1,39.1C1144.4,199.9,1144.8,201,1145.1,202.2z"/>
	</g>
</g>
<path class="st2" d="M1137,364.1c2.1,3.7,0.9,5.5-3.5,5.5c-15.1,0.1-10.6,1.7-18-11.1c-4.5-7.7-8.7-15.7-13.4-23.5
	c-1-1.4-2.5-2.2-4.1-2.4c-5.9-0.2-11.6,0-17.5-0.1c-3,0-2.7,1.7-2.7,3.7c0,9.5,0,19,0,28.3c0,3.9-1.1,5-5,5
	c-11.7,0.1-10.5,0.1-10.5-10.5c-0.1-12.5,0-25,0.1-37.4c0-4,0.7-4.6,4.7-4.6c15.2,0,30.3,0,45.6-0.1c3.9,0,6.6-2.6,6.9-6.5
	c0.1-2.1,0.1-4.4,0-6.5c-0.1-4.5-2.6-7.4-7.2-7.5c-10.5-0.2-21-0.1-31.4-0.1c-5.1,0-10.2-0.1-15.2,0c-2.2,0-3.2-0.9-3.1-3.1
	c0.1-2.7,0.1-5.6,0.1-8.4c0-2.7,1.5-3.9,4.1-3.9h17.7c11.2,0,22.5-0.1,33.7,0.1c4.4,0.1,8.4,2.1,11.5,5.4c1.1,1.1,2.6,2.2,3.1,3.6
	c2.5,7.7,4.1,15.7,2.5,23.8c-0.6,3.6-1.1,7.2-2.5,10.5c-1,2.2-3.4,4.1-5.6,5.6c-1.6,1.2-3.9,1.6-6.4,2.5c-1.4,3.5,1.5,5.9,3,8.6
	C1127.9,348.6,1132.5,356.2,1137,364.1z"/>
<path class="st2" d="M1014.6,283.2c0,2.4,0.2,4.7,0.1,7.1c-0.1,3.9-1.1,4.6-5,4.6c-9.7,0-19.6,0-29.3,0v-0.1c-9.9,0-19.7-0.1-29.6,0
	c-2.7,0-3.7-1-3.6-3.6c0.1-2.7,0.1-5.4,0-8.1c-0.1-2.9,1.1-3.7,3.9-3.7c14.2,0.1,28.5,0,42.7,0c5.5,0,11,0,16.5-0.1
	C1013.1,279.2,1014.6,280.3,1014.6,283.2z"/>
<path class="st2" d="M1014.7,353.2c0.1,3.6,0,7.2,0,10.9c0,2.4-1.1,3.7-3.6,3.7c-14.6-0.1-29.3,0.5-43.9-0.6
	c-10.2-0.7-15.2-5.2-18.5-16.5c-2.6-9.1-1.2-18.6-1.5-27.8c0.1-0.7,0.2-1.4,0.7-2c1.9-3.5,4.7-5.2,8.9-5.2c8.9,0.1,17.7,0,26.5,0
	v-0.1c9,0,17.8,0.1,26.8,0c3,0,4.1,1.5,4.2,4.1c0.1,2.4,0.1,4.7,0,7.1c-0.1,2.6-1.1,4.2-4.1,4.2c-14.1,0-28.2,0-42.4,0
	c-5.1,0-5.2,0-5.2,5.4c0,2,0.2,3.9,0.6,5.9c0.9,4.2,3.9,6.6,8.1,6.7c12.9,0.1,25.8,0,38.7,0.1C1014,349.1,1014.6,349.6,1014.7,353.2
	z"/>
<path class="st3" d="M952.9,200.6c1.3,3.4-0.9,6.4-4.4,6.5c-6.2,0-12.4-0.1-18.5,0.1c-3.1,0.1-5.1-1.2-6.5-3.8
	c-8.2-14.6-16.5-29.1-24.7-43.7c-2.3-4.2-4.5-8.3-7-12.4c-0.5-0.9-1.7-1.8-2.6-1.8c-12-0.1-24-0.1-36.7-0.1v8.8
	c0,14.6,0,29.2,0,43.8c0,1.6-0.1,3-0.4,4.6c-0.5,3-2.2,4.6-5.3,4.6c-4.9,0-10,0-15,0c-3.9,0-5.8-1.8-5.8-5.7c-0.1-7.7,0-15.3,0-23
	c0-17.3,0-34.7,0-52c0-6.4,1.2-7.5,7.5-7.5h75c8.8,0,12.2-2.3,13.3-11.1c0.7-5.1,0.1-10.4-0.9-15.3c-1-5.5-4.4-7.4-9.9-7.5
	c-26,0-52,0-78,0c-5.6,0-7-1.4-7.2-7c0-4.6,0-9.1,0-13.7s1.6-6,6.1-6c27.6,0,55-0.1,82.5,0.1c5.2,0.1,10.3,1,15.2,2.7
	c7.5,2.6,12.3,8.5,15,16c6.1,17.3,5.8,34.6-0.7,51.6c-3.9,10.1-12.3,14.7-23,16.5c0.5,1,1,1.9,1.6,2.9c9.4,16.1,18.9,32.4,28.2,48.5
	C951.6,197.7,952.4,199.2,952.9,200.6z"/>
<path class="st2" d="M895.1,278c4,0,5.2,1.7,4,5.5c-3.4,10.5-6.9,20.8-10.2,31.3c-4.2,13.2-8.5,26.6-12.9,39.8
	c-1.5,4.6-3.1,9.2-8,11.7c-6.9,3.6-15.1,1.5-18.2-5.6c-2.9-6.7-4.7-13.9-7-20.8c-3.1-10-6-20-9-30.1c-0.1-0.5-0.4-1-0.6-1.4
	l-0.7-0.1c-1.5,4.6-3.1,9.1-4.5,13.7c-3.6,11.4-7.2,22.7-10.9,34.1c-2.5,7.6-7.1,11.7-13.5,12c-6.9,0.2-11.9-3.7-14.2-11.5
	c-7.4-24.5-14.7-49-22-73.5c-1.2-4.2-0.6-5.1,3.7-5.1c2.9,0,5.9,0,8.7,0c2.4,0,3.5,1.2,4.1,3.5c2.4,8.5,5,16.8,7.4,25.3
	c3.7,12.7,7.4,25.5,11.4,38.9c0.6-1.2,1.2-2.5,1.7-3.7c6.2-20.1,12.6-40.2,18.8-60.2c0.9-2.7,2.5-3.9,5.2-3.9c2.9,0.1,5.9,0.1,8.7,0
	c3-0.1,4.5,1.4,5.2,4.1c4.4,15.1,8.7,30.2,13.1,45.3c1.6,5.5,3.2,11,4.7,16.3c0.2,0.6,0.6,1.4,1,2c1.7-5.4,3.4-10.1,4.9-15
	c5.2-16.6,10.5-33.1,15.7-49.7c0.7-2.2,2.2-3.1,4.5-3.1C889.4,278,892.2,278,895.1,278z"/>
<g id="XMLID_1_">
	<g>
		<path class="st4" d="M782.5,63.9c0.1,4.8,0.1,9.8,0,14.6c0,4.2-1.8,6-6,6c-34.1,0-68.2,0-102.3-0.1c-3.9,0-5.5-1.6-5.5-5.6
			c-0.1-5.1-0.1-10.1,0-15.2c0-4.3,1.7-5.8,6-5.8c17,0,34.1,0,51,0H776C780.4,57.6,782.4,59.5,782.5,63.9z"/>
	</g>
</g>
<path class="st4" d="M782.5,182.8c0,6,0,12,0,17.8c0,4.3-1.9,6.1-6.1,6.1c-21.3,0-42.6,0.1-64,0c-9.2-0.1-18.5-1.2-26.4-6.4
	c-9.2-6-13.1-15.5-15.2-25.7c-2.9-14.2-2.1-28.5-1.8-42.8c0.1-7,7.1-13.1,14.2-13.3c31.1-0.1,62.1-0.1,93.2-0.1
	c3.4,0,5.2,1.7,5.3,5.5c0.3,5.1,0.3,10.1,0,15.2c-0.3,4.2-2.1,5.7-6.2,5.7c-12.9,0-25.7,0-38.6,0l0,0c-12.6,0-25.1,0.1-37.7,0
	c-2.6,0-3.8,0.5-3.6,3.4c0.3,4.3-0.1,8.7,0.5,13c1.6,9.4,6.2,13.1,15.9,13.1c20.9,0.1,41.9,0,62.7,0
	C781.3,174.6,782.5,175.9,782.5,182.8z"/>
<path class="st2" d="M718.7,302c1,14.2,0.4,28.6,0.1,42.9c-0.1,6-1.9,11.7-6,16.3c-4.5,5-10.6,6.7-17.1,7c-10.7,0.2-21.5,0.5-32.1,0
	c-13.5-0.6-21-7.1-22.7-22c-0.9-7.4-0.9-15-1.2-22.5c0.4-7.4,0.2-15,1.2-22.3c1.7-14.4,8.2-21.3,22.8-22.1c10.4-0.5,20.8-0.4,31.2,0
	C710.5,279.8,717.7,287.4,718.7,302z M703.9,324.1c-0.4-7.4-0.5-14.7-1.1-21.8c-0.4-4.2-2.6-6.5-6.9-6.6c-10-0.4-20.1-0.7-30.2-0.4
	c-6.6,0.2-9.1,3.2-9.2,9.7c-0.2,12.7-0.2,25.3,0,38.1c0.1,5.4,2.9,9.4,9.7,9.2c9.6-0.2,19.1,0,28.7-0.1c4.7,0,7.4-2.1,7.9-6.6
	C703.4,338.4,703.5,331.1,703.9,324.1z"/>
<path class="st5" d="M625.5,65.2c0.1,4.4,0.1,8.8,0,13.3c-0.1,4.8-1.8,6.4-6.6,6.4c-14,0-28.2,0-42.2,0H574V89
	c0,36.5,0,73.2,0,109.9c0,6.8-1.4,8.2-8.2,8.2h-11.7c-5.2,0-6.9-1.4-7-6.6c-0.1-11.3-0.1-22.8-0.1-34.1c0-26.1,0-52.1,0.1-78.3
	c0-0.9-0.1-2-0.3-3.2h-3.6c-13.8,0-27.4,0-41.2,0c-4.7,0-6.5-1.7-6.6-6.4c-0.1-4.9-0.1-10,0-15c0.1-3.8,2.1-5.7,6-5.7
	c39,0,78,0,117,0.1C624,57.9,625.3,59.3,625.5,65.2z"/>
<path class="st2" d="M591.5,293.9c1.7,7.7,1.7,15.8-0.1,23.7c-2.2,9.2-9,13.5-17.6,13.9c-11.7,0.4-23.5,0.4-35.2,0.2
	c-2.5,0-3.2,0.6-3.1,3.1c0.1,9.4,0.1,18.7,0,28.1c0,4.6-0.9,5.5-5.4,5.6c-2,0-4,0-5.9,0c-3.7,0-4.9-1.1-4.9-4.9
	c0-12.1,0-24.1,0-36.2c0-2.6,0-5.2,0-7.7c0-2.7,1-4.1,4.1-4.1c14.6,0,29.1,0,43.7,0c8,0,9.5-1.5,9.9-9.6c0.4-8-2.1-10.6-10-10.6
	c-13.9,0-27.6,0-41.4,0c-5.7,0-6.1-0.4-6.1-6.1c0-2,0-4,0-5.9c0.1-2.5,1.1-3.7,3.9-3.7c8.6,0.1,17.2,0,25.8,0l0,0
	c8.1,0,16.2,0,24.3,0S589.3,283.7,591.5,293.9z"/>
<circle class="st6" cx="220.8" cy="214" r="155.7"/>
<circle class="st7" cx="220.1" cy="218.4" r="75"/>
</svg>
