<?xml version="1.0" encoding="utf-8"?>
<!-- Generator: Adobe Illustrator 24.3.0, SVG Export Plug-In . SVG Version: 6.00 Build 0)  -->
<svg version="1.1" id="Layer_1" xmlns="http://www.w3.org/2000/svg" xmlns:xlink="http://www.w3.org/1999/xlink" x="0px" y="0px"
	 viewBox="0 0 500 500" style="enable-background:new 0 0 500 500;" xml:space="preserve">
<style type="text/css">
	.st0{fill:#ED1C24;}
</style>
<g>
	<path class="st0" d="M207.1,343.6c-3.3-9.1-6.5-17.7-11.1-25.7c-5.1-9-12.4-15.3-21.3-19.9c-3.7-1.9-7.9-3.2-12.2-1.9
		c-4.7,1.4-7.7,4.9-9.5,9.2c-2.1,4.9-3.5,10.1-5,15.3c-0.5,1.5-1,2.4-2.7,2.2c-2-0.2-4.8,0.8-5.4-1.9c-3.7-15.5-13.6-27.2-22.9-39.4
		c-5.6-7.3-10.7-15.1-16.9-22c-8.1-9.1-15.7-18.9-27.3-24.4c-3.1-1.5-5.6-4.6-8.1-7.2c-0.7-0.7-0.9-2.4-0.5-3.4
		c0.2-0.7,1.8-1.3,2.8-1.3c2.1,0.2,4.4,0.5,6.3,1.4c13,6,27.1,7.8,40.9,10.3c6.7,1.2,13.7,1.1,20.5,0.7c5.5-0.3,10-3.6,12.8-8.3
		c0.9-1.5,0.2-4.3-0.4-6.3c-1.7-5.4-4.7-9.8-9.6-13c-2.9-1.9-5.3-4.7-7.8-7.2c-2-1.9-3.9-4.7-1.9-6.7c1.3-1.3,5.2-1.2,7.2-0.2
		c6,2.8,11.7,6.3,17.4,9.6c14.6,8.6,28,18.9,40.9,29.9c5.1,4.3,9.2,9.9,13.7,15c0.4,0.5,0.8,0.9,1.2,1.4c0.3-0.2,0.5-0.3,0.8-0.5
		c-1.7-2.5-3.3-5-5-7.4c-2.9-3.9-5.1-8-4.7-13.1c1-11.9,1.9-23.8,3.1-35.7c0.9-9.6,2.1-19.2,3.2-28.7c1.1-9.8,2.4-19.5,3.5-29.3
		c0.9-7.7,1.7-15.5,2.7-23.2c1.2-9.1,2.5-18.2,3.7-27.3c0.9-6.8,1.7-13.7,2.6-20.5c0.2-1.2,0.5-2.4,0.7-3.5c6-0.7,6.2-0.8,7.4,5
		c1.2,5.8,2.1,11.7,3.1,17.5c1.5,8.9,2.9,17.9,4.2,26.9c1.3,8.8,2.6,17.5,3.9,26.3c1.4,9.7,2.9,19.5,4.3,29.2
		c1.5,10.3,3,20.6,4.5,30.9c1.1,8,2.3,16,3.3,24c1.2,8.8,0.2,17-6,23.9c-1.1,1.2-1.8,2.9-2.7,4.3c0.3,0.2,0.5,0.4,0.8,0.6
		c1.1-1.3,2.3-2.6,3.4-3.9c1.1-1.3,2.4-2.6,3.4-4.1c6.4-8.8,14.9-15.4,23.4-21.9c11-8.4,22.5-16.2,34-23.9c7.5-5,9.5-5.2,14.7-4
		c0.8,2.5-0.4,4.3-2.1,6c-4.2,4.2-8.6,8.2-12.4,12.8c-2.2,2.6-3.9,5.9-5.1,9.2c-1.4,3.8,2,9.5,6.1,11.4c3.4,1.6,6.8,2.8,10.7,2.4
		c7.6-0.7,15.3-1.4,23-1.8c7.9-0.4,15-3.8,22.3-6.1c5.8-1.8,11.5-4.1,17.3-5.9c1.4-0.4,3.1,0.1,4.6,0.2c-0.2,2.2,0,4.5-0.7,6.5
		c-0.3,1-2,1.8-3.2,2.3c-11.3,4.8-19.9,12.7-27,22.4c-12,16.5-24,33-35.4,50c-3.3,4.9-4.6,11.2-6.6,16.9c-0.6,1.6-1.1,2.8-2.9,2.3
		c-1.9-0.5-4.6,1.6-5.5-2.1c-1.1-4.2-2.7-8.2-4.2-12.2c-2-5.2-4.9-9.6-10.5-11.4c-4.4-1.4-8.6,0.3-12.4,2.1
		c-6.6,3.2-12.2,8.1-16.7,13.8c-2.8,3.5-4.9,7.7-6.7,11.8c-2.9,6.6-5.2,13.5-7.8,20.3c0.3,0.2,0.7,0.5,1,0.7
		c4.2-3.3,8.4-6.6,12.5-10.1c2.4-2,4.6-4.3,6.6-6.6c1.9-2.2,4.5-2.4,6.4-1.2c1.8,1.2,3.7,3,2.8,6.2c-1.7,5.6-2.7,11.5-4,17.2
		c-0.2,1-0.6,2-1.1,2.9c-7.4,12.4-14.6,24.9-22.4,37c-4.6,7-10.2,13.3-15.4,20c-1.5,2-7.4,2-9,0c-6.6-8.2-13.6-16-19.5-24.6
		c-6.2-8.9-11.8-18.4-16.9-28c-3.7-7.1-6.1-14.9-8.9-22.4c-0.9-2.5,0.6-6.8,2.6-7.3c2.6-0.7,5-0.6,7.3,1.7
		C193,334,199.3,339.3,207.1,343.6z M222.7,112.7c-0.1,0-0.3,0-0.4,0c-0.2,4.1-0.2,8.2-0.6,12.3c-0.7,7-1.6,14-2.4,21
		c-1,8.3-2,16.7-2.9,25c-0.9,7.9-1.8,15.8-2.7,23.8c-1,8.6-1.8,17.1-2.9,25.7c-0.5,4-0.7,7.7,1.8,11.3c2.3,3.3,4.2,6.9,6.2,10.4
		c0.5,1,1,2.1,1.1,3.2c0.3,8.4,0.6,16.8,0.6,25.2c0,1.8-0.8,4.4-2.1,5.3c-2.4,1.6-6.8-0.1-8.4-2.3c-3.8-5.2-7.5-10.5-11.5-15.5
		c-7.8-9.6-17.1-17.7-26.7-25.4c-4.2-3.4-8.8-6.2-13.8-9.6c0,2.5,0,4.3,0,6c0,5.5-3,9.5-7,12.6c-4.3,3.3-9.6,4.7-14.9,4.4
		c-11.2-0.7-22.4-1.9-33.1-2.9c6.6,8.3,13.8,16.9,20.6,25.9c6.8,9,13.3,18.3,20,27.4c-0.1,0,0.2-0.1,0.4-0.3
		c0.4-0.6,0.8-1.2,1.2-1.8c5.7-9.5,15-12,24.8-10.4c12.9,2.1,24.3,7.8,31.5,19.6c2.7,4.4,6.2,8.4,8.4,13c3,6.5,5.5,13.4,7.4,20.4
		c1.7,6.7,2.4,13.6,3.2,20.5c0.1,1.2-1.5,3.6-2.4,3.7c-3.1,0.2-6.5,0.2-9.4-0.9c-3.5-1.3-6.5-3.6-9.7-5.5c-0.1,0.1-0.2,0.2-0.3,0.3
		c9.5,12.7,19,25.4,28.6,38.3c9.1-13,17.9-25.7,26.8-38.4c-1.9,0.5-3.2,1.4-4.6,2.3c-3.8,2.4-7.6,5.1-12.6,4.3
		c-3-0.5-4.6-1.4-4.2-4.4c1-7.6,1.6-15.3,3.7-22.6c2.3-8.2,3.9-16.7,8.9-24c5.5-8.1,10.4-16.5,19.6-21.8c9.1-5.1,18.1-7.3,28.2-5.6
		c2.8,0.5,5.2,1.5,7.4,3.5c2.8,2.5,5.9,4.5,8.6,6.5c10.5-17.9,24.1-35.8,38.5-53.9c-4.5,0.8-8.4,1.5-12.3,2.2
		c-9.4,1.6-18.8,3.6-28.4,1.6c-6.3-1.3-11.5-4.3-14-10.5c-1.3-3.2-1.7-6.8-2.5-10.3c-8.7,5.5-16.6,12.6-24.4,19.9
		c-9.6,8.9-17.2,19.4-24.3,30.3c-1.8,2.8-3.7,4.1-7.2,3.9c-3-0.2-4.1-1.3-4.1-4.1c-0.1-7.1-0.6-14.2-0.5-21.2c0.1-4,0.2-8,2.9-11.5
		c1.4-1.8,2.1-4.3,3.4-6.2c2.4-3.6,3.7-7.3,2.4-11.7c-0.3-1.1-0.5-2.2-0.6-3.4c-1.3-9.7-2.5-19.3-3.9-29c-1.7-12-3.8-24-5.5-36.1
		C226.2,139.6,224.5,126.1,222.7,112.7z"/>
</g>
</svg>
